<svg width="24"
    height="24"
    viewBox="0 0 24 24"
    fill="#000000"
    xmlns="http://www.w3.org/2000/svg">
    <path
      fill-rule="evenodd" clip-rule="evenodd" d="M21,7.28V5c0,-1.1 -0.9,-2 -2,-2H5c-1.11,0 -2,0.9 -2,2v14c0,1.1 0.89,2 2,2h14c1.1,0 2,-0.9 2,-2v-2.28c0.59,-0.35 1,-0.98 1,-1.72V9c0,-0.74 -0.41,-1.37 -1,-1.72zM20,9v6h-7V9h7zM5,19V5h14v2h-6c-1.1,0 -2,0.9 -2,2v6c0,1.1 0.9,2 2,2h6v2H5z"/>
    <path
      fill-rule="evenodd" clip-rule="evenodd" d="M16,12m-1.5,0a1.5,1.5 0,1 1,3 0a1.5,1.5 0,1 1,-3 0"/>
</svg>
